<svg width="300" height="300" viewBox="0 0 300 300" fill="none" xmlns="http://www.w3.org/2000/svg">
<g clip-path="url(#clip0_695_6)">
<path d="M152.965 263.463L242.977 205.076C243.642 204.639 244.414 204.39 245.21 204.357C246.005 204.324 246.795 204.507 247.495 204.888C248.194 205.268 248.778 205.83 249.183 206.516C249.588 207.201 249.799 207.984 249.795 208.78V281.047C249.795 281.627 249.91 282.202 250.133 282.738C250.356 283.274 250.682 283.76 251.094 284.169C251.506 284.579 251.994 284.902 252.532 285.122C253.069 285.342 253.644 285.453 254.224 285.449H295.002C296.17 285.449 297.29 284.986 298.115 284.16C298.941 283.334 299.405 282.214 299.405 281.047V21.4294C299.405 20.2593 298.942 19.1367 298.117 18.3068C297.292 17.4769 296.172 17.0071 295.002 17H260.694C259.844 16.9997 259.012 17.252 258.305 17.7248L152.965 86.0451C152.253 86.5051 151.424 86.7498 150.576 86.7498C149.729 86.7498 148.899 86.5051 148.187 86.0451L42.9012 17.7248C42.1956 17.249 41.3631 16.9965 40.512 17H6.12365C4.9489 17 3.82236 17.4667 2.99169 18.2974C2.16101 19.1281 1.69434 20.2547 1.69434 21.4294V280.832C1.69433 281.412 1.80894 281.987 2.03186 282.523C2.25479 283.059 2.5815 283.545 2.99316 283.955C3.40483 284.364 3.89336 284.688 4.43061 284.907C4.96785 285.127 5.54324 285.238 6.12365 285.235H46.5252C47.1056 285.238 47.681 285.127 48.2183 284.907C48.7555 284.688 49.2441 284.364 49.6557 283.955C50.0674 283.545 50.3941 283.059 50.617 282.523C50.84 281.987 50.9547 281.412 50.9547 280.832V208.565C50.9503 207.769 51.162 206.987 51.5672 206.301C51.9723 205.616 52.5558 205.053 53.2555 204.673C53.9552 204.293 54.7448 204.109 55.5403 204.143C56.3359 204.176 57.1076 204.424 57.7733 204.861L148.133 263.436C148.848 263.912 149.687 264.167 150.545 264.172C151.404 264.177 152.245 263.931 152.965 263.463ZM247.808 142.822L152.965 204.324C152.253 204.784 151.424 205.029 150.576 205.029C149.729 205.029 148.899 204.784 148.187 204.324L53.344 142.822C52.7252 142.422 52.2166 141.874 51.8649 141.227C51.5131 140.579 51.3295 139.854 51.3306 139.118V90.5283C51.3303 89.7334 51.5439 88.9528 51.9491 88.2689C52.3543 87.5849 52.9362 87.0227 53.6336 86.641C54.331 86.2594 55.1183 86.0724 55.9128 86.0999C56.7073 86.1273 57.4797 86.368 58.1491 86.7969L148.187 145.185C148.894 145.645 149.719 145.891 150.563 145.891C151.406 145.891 152.232 145.645 152.939 145.185L242.95 86.77C243.619 86.3412 244.392 86.1004 245.186 86.073C245.981 86.0456 246.768 86.2325 247.465 86.6142C248.163 86.9958 248.745 87.558 249.15 88.242C249.555 88.926 249.769 89.7065 249.768 90.5015V139.091C249.772 139.829 249.592 140.556 249.246 141.207C248.899 141.858 248.396 142.413 247.782 142.822H247.808Z" fill="#E3D5D2"/>
</g>
<defs>
<clipPath id="clip0_695_6">
<rect width="300" height="269.595" fill="white" transform="translate(0 17)"/>
</clipPath>
</defs>
</svg>
