<svg width="25" height="24" viewBox="0 0 25 24" fill="none" xmlns="http://www.w3.org/2000/svg">
<path d="M17.6213 2H7.62134C4.85991 2 2.62134 4.23858 2.62134 7V17C2.62134 19.7614 4.85991 22 7.62134 22H17.6213C20.3828 22 22.6213 19.7614 22.6213 17V7C22.6213 4.23858 20.3828 2 17.6213 2Z" stroke="#E3D5D2" stroke-width="2" stroke-linecap="round" stroke-linejoin="round"/>
<path d="M16.6213 11.37C16.7447 12.2022 16.6025 13.0522 16.215 13.799C15.8275 14.5458 15.2144 15.1514 14.4629 15.5297C13.7114 15.9079 12.8597 16.0396 12.0291 15.9059C11.1984 15.7723 10.431 15.3801 9.83613 14.7852C9.24121 14.1902 8.84902 13.4229 8.71536 12.5922C8.58169 11.7615 8.71335 10.9099 9.09162 10.1584C9.46988 9.40685 10.0755 8.79374 10.8223 8.40624C11.5691 8.01874 12.419 7.87658 13.2513 8C14.1002 8.12588 14.8861 8.52146 15.493 9.1283C16.0998 9.73515 16.4954 10.5211 16.6213 11.37Z" stroke="#E3D5D2" stroke-width="2" stroke-linecap="round" stroke-linejoin="round"/>
<path d="M18.1213 6.5H18.1313" stroke="#E3D5D2" stroke-width="2" stroke-linecap="round" stroke-linejoin="round"/>
</svg>
